<svg xmlns="http://www.w3.org/2000/svg" width="16" height="18" viewBox="0 0 16 18">
  <g id="Icon_feather-lock" data-name="Icon feather-lock" transform="translate(1 1)">
    <path id="Path_5" data-name="Path 5" d="M6.056,16.5H16.944A1.578,1.578,0,0,1,18.5,18.1v5.6a1.578,1.578,0,0,1-1.556,1.6H6.056A1.578,1.578,0,0,1,4.5,23.7V18.1a1.578,1.578,0,0,1,1.556-1.6Z" transform="translate(-4.5 -9.3)" fill="none" stroke="#000" stroke-linecap="round" stroke-linejoin="round" stroke-width="2"/>
    <path id="Path_6" data-name="Path 6" d="M10.5,10.2V7a3.9,3.9,0,0,1,3.8-4,3.9,3.9,0,0,1,3.8,4v3.2" transform="translate(-7.3 -3)" fill="none" stroke="#000" stroke-linecap="round" stroke-linejoin="round" stroke-width="2"/>
  </g>
</svg>
